<svg xmlns="http://www.w3.org/2000/svg">
<symbol id="header-icon1" viewBox="0 0 27 45">
<path d="M25.6747 0.009363L19.4385 0C12.4323 0 7.90463 4.34677 7.90463 11.0746V16.1807H1.63439C1.09257 16.1807 0.653809 16.5917 0.653809 17.0987V24.4969C0.653809 25.0039 1.09307 25.4145 1.63439 25.4145H7.90463V44.0824C7.90463 44.5894 8.34339 45 8.88522 45H17.0661C17.6079 45 18.0467 44.589 18.0467 44.0824V25.4145H25.378C25.9199 25.4145 26.3586 25.0039 26.3586 24.4969L26.3616 17.0987C26.3616 16.8553 26.2581 16.6221 26.0745 16.4499C25.8909 16.2776 25.6407 16.1807 25.3806 16.1807H18.0467V11.8522C18.0467 9.7717 18.5765 8.71555 21.4727 8.71555L25.6737 8.71415C26.215 8.71415 26.6538 8.30311 26.6538 7.79657V0.926937C26.6538 0.420867 26.2155 0.0102993 25.6747 0.009363Z" fill="white"/>
</symbol>
<symbol id="header-icon2" viewBox="0 0 45 45">
<path d="M30.9375 0H14.0625C6.29719 0 0 6.29719 0 14.0625V30.9375C0 38.7028 6.29719 45 14.0625 45H30.9375C38.7028 45 45 38.7028 45 30.9375V14.0625C45 6.29719 38.7028 0 30.9375 0ZM40.7812 30.9375C40.7812 36.3656 36.3656 40.7812 30.9375 40.7812H14.0625C8.63438 40.7812 4.21875 36.3656 4.21875 30.9375V14.0625C4.21875 8.63438 8.63438 4.21875 14.0625 4.21875H30.9375C36.3656 4.21875 40.7812 8.63438 40.7812 14.0625V30.9375Z" fill="white"/>
<path d="M22.5 11.25C16.2872 11.25 11.25 16.2872 11.25 22.5C11.25 28.7128 16.2872 33.75 22.5 33.75C28.7128 33.75 33.75 28.7128 33.75 22.5C33.75 16.2872 28.7128 11.25 22.5 11.25ZM22.5 29.5312C18.6244 29.5312 15.4688 26.3756 15.4688 22.5C15.4688 18.6216 18.6244 15.4688 22.5 15.4688C26.3756 15.4688 29.5312 18.6216 29.5312 22.5C29.5312 26.3756 26.3756 29.5312 22.5 29.5312Z" fill="white"/>
<path d="M34.5901 11.9058C35.418 11.9058 36.0892 11.2347 36.0892 10.4067C36.0892 9.57884 35.418 8.90768 34.5901 8.90768C33.7622 8.90768 33.0911 9.57884 33.0911 10.4067C33.0911 11.2347 33.7622 11.9058 34.5901 11.9058Z" fill="white"/>
</symbol>
<symbol id="header-icon3" viewBox="0 0 45 31">
<path d="M35.6541 0H9.34592C4.18431 0 0 4.07352 0 9.09846V21.9015C0 26.9265 4.18431 31 9.34592 31H35.6541C40.8157 31 45 26.9265 45 21.9015V9.09846C45 4.07352 40.8157 0 35.6541 0ZM29.3335 16.1229L17.0283 21.8363C16.7004 21.9886 16.3217 21.7559 16.3217 21.4023V9.61827C16.3217 9.25963 16.7104 9.02719 17.039 9.18931L29.3441 15.2599C29.71 15.4403 29.7036 15.9511 29.3335 16.1229Z" fill="white"/>
</symbol>
<symbol id="header-icon4" viewBox="0 0 45 24">
<path d="M44.7613 21.6746C44.7069 21.5649 44.6561 21.4738 44.6089 21.4009C43.8281 20.0864 42.3361 18.473 40.1338 16.5602L40.0873 16.5164L40.064 16.495L40.0404 16.4729H40.0168C39.0173 15.5823 38.3843 14.9834 38.1192 14.6768C37.6343 14.0927 37.5256 13.5015 37.7907 12.9024C37.9779 12.4498 38.6814 11.494 39.8994 10.0337C40.54 9.25974 41.0474 8.63946 41.4221 8.17214C44.1245 4.81373 45.2962 2.66767 44.9367 1.7331L44.7971 1.5147C44.7033 1.38322 44.4612 1.26294 44.0712 1.15324C43.6802 1.04378 43.1806 1.02567 42.5712 1.09863L35.8237 1.1422C35.7144 1.10599 35.5583 1.10936 35.355 1.15324C35.1518 1.19712 35.0503 1.21914 35.0503 1.21914L34.9328 1.27399L34.8396 1.33988C34.7615 1.38345 34.6756 1.46009 34.5818 1.56963C34.4885 1.67879 34.4104 1.8069 34.348 1.95288C33.6134 3.71961 32.7782 5.36222 31.8408 6.88063C31.2628 7.78605 30.732 8.57073 30.2473 9.23512C29.7632 9.89928 29.3571 10.3886 29.0293 10.7023C28.701 11.0163 28.4048 11.2678 28.1387 11.4578C27.8731 11.6479 27.6703 11.7282 27.5299 11.6988C27.3892 11.6695 27.2567 11.6403 27.1312 11.6112C26.9126 11.4797 26.7369 11.3009 26.6043 11.0746C26.4712 10.8483 26.3816 10.5634 26.3348 10.2203C26.2881 9.87696 26.2606 9.58162 26.2527 9.33331C26.2454 9.0853 26.2488 8.7345 26.2646 8.28191C26.2808 7.82909 26.2881 7.5227 26.2881 7.36207C26.2881 6.80714 26.2997 6.20489 26.3229 5.55514C26.3466 4.9054 26.3657 4.3906 26.3817 4.01134C26.3976 3.63169 26.405 3.23004 26.405 2.80659C26.405 2.38315 26.3774 2.05107 26.3229 1.81004C26.2691 1.56932 26.1865 1.33566 26.0776 1.10913C25.968 0.882837 25.8077 0.707783 25.5973 0.583511C25.3864 0.459393 25.1243 0.360896 24.8124 0.287714C23.9845 0.112583 22.9302 0.0178448 21.6491 0.00311629C18.744 -0.0260339 16.8773 0.149327 16.0495 0.528969C15.7215 0.689372 15.4246 0.908534 15.1593 1.18577C14.878 1.50711 14.8388 1.68247 15.0418 1.71132C15.9791 1.84257 16.6427 2.15654 17.0332 2.65294L17.174 2.91598C17.2835 3.10577 17.3928 3.44176 17.5021 3.9235C17.6114 4.40525 17.6819 4.93816 17.7129 5.52193C17.7908 6.58798 17.7908 7.50053 17.7129 8.25966C17.6347 9.0191 17.5608 9.61031 17.4903 10.0338C17.4198 10.4572 17.3145 10.8003 17.174 11.0631C17.0332 11.3259 16.9396 11.4865 16.8927 11.5448C16.8458 11.6031 16.8067 11.6399 16.7757 11.6543C16.5727 11.727 16.3616 11.764 16.143 11.764C15.9242 11.764 15.6588 11.6617 15.3464 11.4572C15.0342 11.2527 14.7101 10.9718 14.3742 10.614C14.0384 10.2561 13.6596 9.75606 13.2377 9.11369C12.8161 8.47131 12.3787 7.7121 11.9257 6.83606L11.5509 6.20074C11.3167 5.79203 10.9966 5.1969 10.5905 4.41591C10.1841 3.63461 9.82491 2.87885 9.51266 2.1488C9.38784 1.84218 9.20033 1.60875 8.95045 1.44812L8.83318 1.38222C8.75522 1.32392 8.63007 1.26202 8.4584 1.19605C8.28648 1.13015 8.10709 1.0829 7.91949 1.05382L1.49978 1.0974C0.843772 1.0974 0.398662 1.23632 0.16429 1.51378L0.0704921 1.64504C0.0236341 1.71814 0 1.8349 0 1.99561C0 2.15624 0.046858 2.35338 0.140656 2.58682C1.07782 4.64574 2.09696 6.6314 3.19808 8.54411C4.2992 10.4568 5.25605 11.9976 6.06807 13.1649C6.88024 14.3332 7.7081 15.4357 8.55162 16.4721C9.39515 17.5089 9.9535 18.1732 10.2267 18.4651C10.5002 18.7576 10.715 18.9762 10.8712 19.1222L11.4571 19.6477C11.8319 19.9982 12.3824 20.418 13.1087 20.907C13.8352 21.3963 14.6395 21.8781 15.5221 22.353C16.4047 22.8271 17.4316 23.2141 18.6032 23.5133C19.7746 23.8129 20.9148 23.9331 22.0239 23.8751H24.7184C25.2648 23.831 25.6788 23.6703 25.9602 23.3931L26.0534 23.2833C26.1161 23.1962 26.1748 23.0608 26.229 22.8786C26.2838 22.6961 26.311 22.4951 26.311 22.2764C26.295 21.6486 26.3462 21.0829 26.463 20.5792C26.5798 20.0757 26.7129 19.696 26.8618 19.4404C27.0105 19.1849 27.1784 18.9693 27.3653 18.7946C27.5526 18.6195 27.686 18.5134 27.7643 18.4769C27.8421 18.4401 27.9042 18.4152 27.9511 18.4002C28.3259 18.2835 28.7671 18.3965 29.2752 18.74C29.783 19.0831 30.2592 19.5068 30.7046 20.0103C31.1498 20.5143 31.6847 21.0797 32.3093 21.7075C32.9344 22.3354 33.481 22.8022 33.9494 23.1093L34.4178 23.3721C34.7306 23.5475 35.1367 23.7081 35.6367 23.8541C36.1357 24 36.5729 24.0365 36.9484 23.9635L42.9461 23.8761C43.5393 23.8761 44.0009 23.7843 44.3284 23.6021C44.6565 23.4196 44.8514 23.2185 44.9142 22.9998C44.9769 22.7809 44.9803 22.5325 44.9261 22.2548C44.8706 21.9778 44.8158 21.7841 44.7613 21.6746Z" fill="white"/>
</symbol>
<symbol id="open" viewBox="0 0 40 40">
<path d="M6.66675 18.3333H26.6667V21.6667H6.66675V18.3333ZM6.66675 10H33.3334V13.3333H6.66675V10ZM6.66675 30H18.7251V26.6667H6.66675V30Z" fill="white"/>
</symbol>
<symbol id="close" viewBox="0 0 32 32">
<path d="M24 9.4L22.6 8L16 14.6L9.4 8L8 9.4L14.6 16L8 22.6L9.4 24L16 17.4L22.6 24L24 22.6L17.4 16L24 9.4Z" fill="white"/>
</symbol>
<symbol id="about1" viewBox="0 0 70 70">
<path d="M27.6674 12.5379H26.7231V11.5936C26.7231 11.027 26.2638 10.5677 25.6971 10.5677C25.1304 10.5677 24.6712 11.027 24.6712 11.5936V12.5379H23.7269C23.1602 12.5379 22.7009 12.9973 22.7009 13.5639C22.7009 14.1304 23.1602 14.5898 23.7269 14.5898H24.6712V15.5343C24.6712 16.1008 25.1304 16.5602 25.6971 16.5602C26.2638 16.5602 26.7231 16.1008 26.7231 15.5343V14.5898H27.6674C28.2341 14.5898 28.6933 14.1304 28.6933 13.5639C28.6933 12.9973 28.2341 12.5379 27.6674 12.5379Z" fill="white"/>
<path d="M46.2719 12.5379H45.3276V11.5936C45.3276 11.027 44.8683 10.5677 44.3016 10.5677C43.7349 10.5677 43.2757 11.027 43.2757 11.5936V12.5379H42.3314C41.7647 12.5379 41.3054 12.9973 41.3054 13.5639C41.3054 14.1304 41.7647 14.5898 42.3314 14.5898H43.2757V15.5343C43.2757 16.1008 43.7349 16.5602 44.3016 16.5602C44.8683 16.5602 45.3276 16.1008 45.3276 15.5343V14.5898H46.2719C46.8386 14.5898 47.2978 14.1304 47.2978 13.5639C47.2978 12.9973 46.8386 12.5379 46.2719 12.5379Z" fill="white"/>
<path d="M27.6674 26.6295H26.7231V25.6852C26.7231 25.1186 26.2638 24.6592 25.6971 24.6592C25.1304 24.6592 24.6712 25.1186 24.6712 25.6852V26.6295H23.7269C23.1602 26.6295 22.7009 27.0889 22.7009 27.6555C22.7009 28.222 23.1602 28.6814 23.7269 28.6814H24.6712V29.6257C24.6712 30.1923 25.1304 30.6517 25.6971 30.6517C26.2638 30.6517 26.7231 30.1923 26.7231 29.6257V28.6814H27.6674C28.2341 28.6814 28.6933 28.222 28.6933 27.6555C28.6933 27.0889 28.2341 26.6295 27.6674 26.6295Z" fill="white"/>
<path d="M46.2719 26.6295H45.3276V25.6852C45.3276 25.1186 44.8683 24.6592 44.3016 24.6592C43.7349 24.6592 43.2757 25.1186 43.2757 25.6852V26.6295H42.3314C41.7647 26.6295 41.3054 27.0889 41.3054 27.6555C41.3054 28.222 41.7647 28.6814 42.3314 28.6814H43.2757V29.6257C43.2757 30.1923 43.7349 30.6517 44.3016 30.6517C44.8683 30.6517 45.3276 30.1923 45.3276 29.6257V28.6814H46.2719C46.8386 28.6814 47.2978 28.222 47.2978 27.6555C47.2978 27.0889 46.8386 26.6295 46.2719 26.6295Z" fill="white"/>
<path d="M63.4561 29.0518H49.8792C48.7194 29.0518 47.7758 29.9953 47.7758 31.1551V33.9326C47.7758 35.0924 48.7193 36.0359 49.8792 36.0359H50.0765V40.68C49.1632 39.9606 48.0126 39.5296 46.7626 39.5296H22.9676C21.7176 39.5296 20.5669 39.9604 19.6538 40.68V36.0259H20.121C21.2808 36.0259 22.2244 35.0824 22.2244 33.9227V31.1451C22.2244 29.9853 21.2809 29.0418 20.121 29.0418H6.54409C5.38431 29.0418 4.44067 29.9853 4.44067 31.1451V33.9227C4.44067 35.0824 5.38417 36.0259 6.54409 36.0259H7.01126V49.1205C7.01126 51.2153 8.62468 52.9395 10.6741 53.1181V55.1644C10.6741 56.7895 11.9963 58.1115 13.6214 58.1115H15.9724V67.9481H14.5035C13.9368 67.9481 13.4775 68.4074 13.4775 68.974C13.4775 69.5406 13.9368 69.9999 14.5035 69.9999H24.7547C25.3214 69.9999 25.7806 69.5406 25.7806 68.974C25.7806 68.4074 25.3214 67.9481 24.7547 67.9481H23.2857V58.1115H46.4447V67.9481H44.9758C44.4091 67.9481 43.9499 68.4074 43.9499 68.974C43.9499 69.5406 44.4091 69.9999 44.9758 69.9999H55.2271C55.7938 69.9999 56.2531 69.5406 56.2531 68.974C56.2531 68.4074 55.7938 67.9481 55.2271 67.9481H53.7581V58.1115H56.1092C57.7343 58.1115 59.0563 56.7895 59.0563 55.1644V53.1181C61.1058 52.9396 62.7192 51.2153 62.7192 49.1205V36.0359H63.4564C64.6162 36.0359 65.5598 35.0924 65.5598 33.9326V31.1551C65.5595 29.9954 64.616 29.0518 63.4561 29.0518ZM22.9676 41.5818H46.7627C48.5901 41.5818 50.0766 43.0683 50.0766 44.8957V51.0825H19.6537V44.8957C19.6537 43.0683 21.1403 41.5818 22.9676 41.5818ZM6.54409 33.9741C6.51579 33.9741 6.49269 33.951 6.49269 33.9227V31.1451C6.49269 31.1168 6.51579 31.0937 6.54409 31.0937H20.121C20.1493 31.0937 20.1724 31.1168 20.1724 31.1451V33.9227C20.1724 33.951 20.1493 33.9741 20.121 33.9741H6.54409ZM11.0252 51.0827C9.94334 51.0825 9.06314 50.2023 9.06314 49.1206V36.0261H17.6018V51.0827H11.0252ZM21.2337 67.9481H18.0244V58.1117H21.2337V67.9481ZM51.7059 67.9481H48.4966V58.1117H51.7059V67.9481ZM57.0042 55.1644C57.0042 55.6581 56.6026 56.0597 56.1091 56.0597H13.6214C13.1277 56.0597 12.726 55.6581 12.726 55.1644V53.1344H57.0042V55.1644ZM60.667 49.1206C60.667 50.2025 59.7868 51.0825 58.705 51.0825H52.1285V36.0361H60.667V49.1206ZM63.5076 33.9328C63.5076 33.9611 63.4845 33.9842 63.4562 33.9842H49.8794C49.8511 33.9842 49.8279 33.9611 49.8279 33.9328V31.1552C49.8279 31.1269 49.8511 31.1038 49.8794 31.1038H63.4562C63.4845 31.1038 63.5076 31.1269 63.5076 31.1552V33.9328Z" fill="white"/>
<path d="M57.6955 8.45511C57.6958 3.793 53.9028 0 49.2407 0H20.4864C15.8241 0 12.0312 3.793 12.0312 8.45511V25.269C12.0314 25.8357 12.4906 26.2949 13.0573 26.2949C13.624 26.2949 14.0833 25.8355 14.0833 25.269V8.45511C14.0833 4.92435 16.9557 2.05188 20.4864 2.05188H49.2406C52.7712 2.05188 55.6437 4.92435 55.6437 8.4599L55.7231 25.2737C55.7258 25.8387 56.1845 26.2949 56.7489 26.2949C56.7505 26.2949 56.7522 26.2949 56.7538 26.2949C57.3205 26.2922 57.7777 25.8307 57.775 25.264L57.6955 8.45511Z" fill="white"/>
</symbol>
<symbol id="about2" viewBox="0 0 70 70">
<path d="M68.927 33.6411V3.93562C68.927 3.36851 68.4674 2.90872 67.9001 2.90872H2.1C1.53276 2.90872 1.07311 3.36851 1.07311 3.93562V33.6412C0.435723 33.9787 0 34.648 0 35.418V37.5258C0 38.2958 0.435723 38.9654 1.07311 39.3028V66.0643C1.07311 66.6314 1.53289 67.0912 2.1 67.0912H6.7654H11.3462H11.6569H23.1602H34.9745H46.7887H58.3432H58.6027H63.2346H67.9C68.4672 67.0912 68.9269 66.6314 68.9269 66.0643V39.3028C69.5643 38.9652 70 38.2958 70 37.5258V35.418C70.0001 34.648 69.5644 33.9787 68.927 33.6411ZM66.4858 4.96265C66.0744 5.5675 65.315 6.27597 64.113 7.03094C64.0983 7.04023 64.0832 7.04939 64.0685 7.05869C63.9987 7.10217 63.9271 7.14578 63.8545 7.18953C63.8213 7.20949 63.788 7.22932 63.7544 7.24928C63.6992 7.28209 63.6424 7.3149 63.5854 7.34785C63.5395 7.37438 63.4937 7.4009 63.4466 7.42756C63.4015 7.45313 63.3549 7.47883 63.3087 7.5044C63.2513 7.53625 63.1945 7.56811 63.1356 7.6001C63.1254 7.6057 63.1146 7.61131 63.1043 7.61678C62.9556 7.69717 62.8015 7.77756 62.6434 7.85822C62.6009 7.87996 62.5592 7.90156 62.5159 7.92317C62.4553 7.95365 62.393 7.98401 62.3312 8.01449C62.2743 8.04238 62.2175 8.07041 62.1594 8.0983C62.1039 8.1251 62.0476 8.15176 61.9911 8.17856C61.919 8.21274 61.8459 8.24692 61.7718 8.2811C61.726 8.30229 61.6801 8.32348 61.6336 8.34467C61.5326 8.39074 61.4298 8.43682 61.3253 8.48289C61.3026 8.49301 61.2803 8.50299 61.2574 8.51311C60.8375 8.69713 60.3908 8.8817 59.9153 9.06614C59.9152 9.06614 59.9152 9.06627 59.9151 9.06627C59.3004 9.30471 58.644 9.54069 57.9421 9.77256C56.0422 10.4 53.9944 10.9436 51.8391 11.3995C51.8049 11.4032 51.7707 11.4083 51.7364 11.4155C49.6913 11.8434 47.5388 12.1952 45.3389 12.4613C45.3111 12.4647 45.2839 12.4704 45.2566 12.4759C41.9447 12.8709 38.4897 13.0772 35.0001 13.0772C31.5105 13.0772 28.0553 12.871 24.7434 12.4762C24.7162 12.4706 24.6891 12.4648 24.6614 12.4616C22.4605 12.1954 20.3081 11.8436 18.2639 11.4158C18.2296 11.4085 18.1954 11.4035 18.1612 11.3998C16.0058 10.9438 13.9581 10.4002 12.0582 9.77284C11.3563 9.5411 10.6998 9.30498 10.0852 9.06655C10.0851 9.06655 10.0849 9.06641 10.0849 9.06641C9.60957 8.88211 9.16291 8.69754 8.74318 8.51352C8.72008 8.5034 8.69752 8.49315 8.67455 8.48303C8.57023 8.43696 8.46769 8.39102 8.36679 8.34508C8.32031 8.32389 8.27437 8.3027 8.22857 8.28151C8.15447 8.24733 8.08146 8.21301 8.00927 8.17897C7.95281 8.15217 7.89648 8.12551 7.84097 8.09871C7.78287 8.07068 7.72613 8.04279 7.66925 8.0149C7.60732 7.98442 7.54511 7.95406 7.48455 7.92358C7.44134 7.90184 7.39951 7.88024 7.35699 7.85863C7.20058 7.77893 7.048 7.69922 6.90062 7.61965C6.88872 7.61322 6.87628 7.6068 6.86453 7.60037C6.80587 7.56865 6.74941 7.53693 6.69226 7.50508C6.64591 7.47938 6.59902 7.45354 6.55376 7.42783C6.50673 7.40117 6.46093 7.37465 6.41499 7.34813C6.35798 7.31518 6.30138 7.28236 6.24601 7.24955C6.21224 7.22959 6.17902 7.20963 6.14593 7.1898C6.0732 7.14605 6.00169 7.10244 5.93196 7.05896C5.91706 7.04967 5.90216 7.04051 5.88739 7.03121C4.68522 6.27611 3.92589 5.5675 3.5145 4.96279H66.4858V4.96265ZM3.1269 7.56893C3.44327 7.84277 3.80626 8.12168 4.21765 8.40414C5.3088 9.15911 6.76308 9.94442 8.69369 10.7286C8.69219 17.18 6.81066 24.3591 5.20052 29.3211C5.02552 29.8606 5.32083 30.4398 5.86046 30.6148C6.39913 30.7896 6.97896 30.4944 7.15423 29.955C8.74783 25.0439 10.5982 18.0067 10.738 11.494C10.9588 11.5704 11.1833 11.6468 11.4141 11.723C13.0885 12.2759 14.872 12.7662 16.7399 13.1905C14.5695 19.9248 11.0308 25.4767 8.37855 29.0141C8.03839 29.4679 8.13041 30.1116 8.58418 30.4517C8.76888 30.5902 8.98504 30.6571 9.19941 30.6571C9.51168 30.6571 9.82012 30.5152 10.0219 30.2461C12.7962 26.5458 16.5094 20.7135 18.761 13.6174C20.1754 13.8944 21.6307 14.1349 23.117 14.3379C20.9417 19.6675 16.5899 25.157 13.2013 28.9372C12.8227 29.3595 12.8582 30.0088 13.2806 30.3873C13.7031 30.766 14.3522 30.7304 14.7308 30.3082C21.049 23.2599 23.9186 17.9773 25.2219 14.5974C28.3948 14.9482 31.6837 15.1309 34.9999 15.1309C38.3165 15.1309 41.6055 14.9482 44.7785 14.5974C46.9989 20.3725 51.6693 26.2934 55.278 30.3183C55.6564 30.7405 56.3057 30.7759 56.7281 30.3973C57.1505 30.0187 57.1859 29.3695 56.8072 28.9471C53.4154 25.1644 49.0594 19.6705 46.8829 14.338C48.3693 14.1351 49.8245 13.8946 51.2389 13.6175C53.4932 20.7221 57.2125 26.5603 59.9916 30.2643C60.1934 30.5332 60.5016 30.675 60.8138 30.675C61.0284 30.675 61.2447 30.608 61.4294 30.4694C61.883 30.1289 61.9749 29.4853 61.6344 29.0316C58.9776 25.4906 55.433 19.9328 53.26 13.1904C55.1277 12.766 56.9113 12.2758 58.5857 11.7229C58.8165 11.6467 59.041 11.5703 59.2618 11.4939C59.4017 18.0032 61.2501 25.0359 62.8421 29.9437C63.0171 30.4833 63.5964 30.7783 64.1358 30.6038C64.6752 30.4288 64.9708 29.8495 64.7958 29.31C63.1873 24.3512 61.3078 17.1767 61.3063 10.7285C63.2369 9.94428 64.6912 9.15897 65.7824 8.40401C66.1937 8.12154 66.5569 7.84277 66.8731 7.56879V33.4077H61.1766C60.0682 33.4077 59.1664 34.3095 59.1664 35.4179V37.5257C59.1664 38.0719 59.3861 38.5672 59.7409 38.9299C59.1191 40.8199 58.3778 43.1923 57.6673 45.7621H12.333C11.6223 43.1923 10.8809 40.8195 10.2593 38.9299C10.614 38.5672 10.8338 38.0719 10.8338 37.5257V35.4179C10.8338 34.3095 9.93195 33.4077 8.82357 33.4077H3.1269V7.56893ZM2.05393 37.4821V35.4618H8.77982V37.4821H4.87663H2.1H2.05393ZM7.33785 64.703C7.22423 64.9093 7.00494 65.0374 6.7654 65.0374H3.1269V39.536H4.11073C7.85109 52.1993 9.05832 61.5788 7.33785 64.703ZM12.3731 65.0374V59.3692C12.3731 58.1487 13.3661 57.1557 14.5866 57.1557H19.92C21.1405 57.1557 22.1333 58.1487 22.1333 59.3692V65.0374H12.3731ZM24.1872 65.0374V59.3692C24.1872 58.1487 25.1802 57.1557 26.4007 57.1557H31.734C32.9546 57.1557 33.9475 58.1487 33.9475 59.3692V65.0374H24.1872ZM36.0015 65.0374V59.3692C36.0015 58.1487 36.9945 57.1557 38.2149 57.1557H43.5482C44.7688 57.1557 45.7616 58.1487 45.7616 59.3692V65.0374H36.0015ZM57.5758 65.0374H47.8156V59.3692C47.8156 58.1487 48.8086 57.1557 50.029 57.1557H55.3623C56.5828 57.1557 57.5758 58.1487 57.5758 59.3692V65.0374ZM59.6297 65.0373V59.3692C59.6297 57.0161 57.7154 55.1018 55.3625 55.1018H50.0292C48.7336 55.1018 47.5721 55.6828 46.7887 56.5972C46.0054 55.6828 44.8437 55.1018 43.5482 55.1018H38.2149C36.9195 55.1018 35.7578 55.6828 34.9745 56.597C34.1912 55.6828 33.0295 55.1018 31.734 55.1018H26.4007C25.1053 55.1018 23.9436 55.6828 23.1602 56.597C22.3769 55.6828 21.2152 55.1018 19.9198 55.1018H14.5866C12.2335 55.1018 10.3191 57.0161 10.3191 59.3692V65.0374H9.44182C11.5232 59.7769 8.54904 47.4247 6.25107 39.536H8.29652C9.26682 42.4829 10.5367 46.6323 11.5096 50.8458C11.6371 51.3984 12.1885 51.743 12.7413 51.6154C13.2939 51.4879 13.6384 50.9365 13.5108 50.3837C13.3118 49.5217 13.1007 48.6628 12.8823 47.8161H57.1181C56.8975 48.671 56.6844 49.5385 56.4837 50.4091C56.3563 50.9618 56.7009 51.5132 57.2537 51.6406C57.3313 51.6585 57.4089 51.6671 57.4854 51.6671C57.9529 51.6671 58.3756 51.3458 58.4853 50.8707C59.4591 46.6479 60.7315 42.489 61.7039 39.5359H63.7493C61.4514 47.4246 58.4772 59.7767 60.5586 65.0373H59.6297ZM66.8732 65.0374H63.2349C62.9953 65.0374 62.776 64.9093 62.6624 64.703C60.942 61.579 62.1492 52.1993 65.8894 39.536H66.8732V65.0374ZM67.9462 37.4821H67.9001H65.1235H61.2203V35.4618H67.9462V37.4821Z" fill="white"/>
</symbol>
<symbol id="star" viewBox="0 0 23 24">
<path d="M11.2444 0L7.84425 7.90286L0.244385 9.16286L5.74439 15.3171L4.44411 24L11.2444 19.9029L18.0447 24L16.7444 15.3171L22.2444 9.17143L14.6445 7.90286L11.2444 0Z" fill="#D1A954"/>
</symbol>
<symbol id="part" viewBox="0 0 200 97">
<path d="M61.7715 63.4187H74.4644V67.6026H68.4263V96.9999H61.7715V63.4187Z" fill="white" fill-opacity="0.5"/>
<path d="M81.9927 84.3932L83.1332 67.6026H83.5152L84.6557 84.3932H81.9927ZM74.623 96.9999H81.1387L81.7553 88.0816H84.8931L85.5125 96.9999H92.0254L88.5547 63.4187H78.0937L74.623 96.9999Z" fill="white" fill-opacity="0.5"/>
<path d="M101.554 85.2465V91.5774C101.554 92.4307 102.208 92.6784 102.59 92.6784C103.218 92.6784 103.654 92.1554 103.654 91.5774V83.7601C103.654 82.7141 103.463 81.5581 100.981 81.5581H98.2793V77.8696H101.09C102.972 77.8696 103.654 77.4292 103.654 75.3648V68.7036C103.654 68.1256 103.218 67.6026 102.59 67.6026C102.208 67.6026 101.554 67.8228 101.554 68.7036V74.1812H94.896V69.4193C94.896 67.0796 95.1688 63.4187 99.8346 63.4187H105.346C110.012 63.4187 110.312 67.0796 110.312 69.4193V74.7868C110.312 78.4477 107.774 79.4386 105.783 79.356V79.6863C110.257 79.5762 110.312 83.0445 110.312 84.2281V90.9993C110.312 93.3665 110.012 96.9999 105.346 96.9999H99.8346C95.1688 96.9999 94.896 93.3665 94.896 90.9993V85.2465H101.554Z" fill="white" fill-opacity="0.5"/>
<path d="M114.678 63.4187H130.094V96.9999H123.437V67.6026H121.336V96.9999H114.678V63.4187Z" fill="white" fill-opacity="0.5"/>
<path d="M141.118 81.8884V67.6026H141.991C142.701 67.6026 143.219 68.2081 143.219 69.2817V80.2093C143.219 81.2828 142.701 81.8884 141.991 81.8884H141.118ZM134.46 96.9999H141.118V85.5768H144.938C149.576 85.5768 149.876 81.9434 149.876 79.5762V69.4193C149.876 67.0796 149.576 63.4187 144.938 63.4187H134.46V96.9999Z" fill="white" fill-opacity="0.5"/>
<path d="M163.001 91.5774C163.001 92.1554 162.564 92.6784 161.937 92.6784C161.555 92.6784 160.9 92.4307 160.9 91.5774V68.7036C160.9 67.8228 161.555 67.6026 161.937 67.6026C162.564 67.6026 163.001 68.1256 163.001 68.7036V91.5774ZM154.242 90.9993C154.242 93.3665 154.543 96.9999 159.181 96.9999H164.72C169.358 96.9999 169.658 93.3665 169.658 90.9993V69.4193C169.658 67.0796 169.358 63.4187 164.72 63.4187H159.181C154.543 63.4187 154.242 67.0796 154.242 69.4193V90.9993Z" fill="white" fill-opacity="0.5"/>
<path d="M191.324 63.4187H200V96.9999H193.343V75.9428H193.097L189.659 96.9999H184.339L180.928 75.9428H180.682V96.9999H174.025V63.4187H182.674L187.013 87.0357L191.324 63.4187Z" fill="white" fill-opacity="0.5"/>
<path d="M53.1467 17.5062C51.1085 8.50539 46.0008 1.1836 45.2968 0C44.1836 1.67906 40.1099 8.14756 38.039 15.3042C35.7771 23.3142 35.4442 30.4158 36.2245 37.3797C36.9994 44.3712 39.9271 51.5554 39.9271 51.5554C41.4824 55.2989 43.8125 59.3451 45.3295 61.327C47.5533 58.4093 52.6637 49.7112 54.2572 38.3706C55.1439 32.0398 55.1821 26.5071 53.1467 17.5062ZM45.2968 59.0699C44.2954 57.1706 42.7402 53.5648 42.5929 47.9496C42.5547 42.5545 44.702 37.9027 45.3295 36.9393C45.8889 37.9027 47.7388 41.949 47.9598 47.4816C48.1099 52.8766 46.3309 57.1431 45.2968 59.0699ZM52.5546 32.7829C52.4782 36.2237 52.0716 39.857 51.5532 42.0315C51.7388 38.2881 51.294 33.0307 50.4427 28.9019C49.5914 24.8005 47.1822 17.9191 45.2586 14.7537C43.4824 17.7815 41.2941 23.727 40.1481 28.8743C38.9967 34.0216 38.964 40.2699 38.964 42.1417C38.6584 40.5727 37.8944 34.93 38.1099 29.2872C38.29 24.6354 39.3705 19.8184 39.9626 17.6164C42.2218 10.267 44.7784 5.56016 45.2586 4.81696C45.7388 5.56016 48.9584 11.3681 50.6283 17.4512C52.2899 23.5344 52.6255 29.3698 52.5546 32.7829Z" fill="white" fill-opacity="0.5"/>
<path d="M48.7527 63.4188H33.2576V73.9061C33.2713 73.9061 33.2822 73.8786 33.2958 73.8786C36.9465 70.1902 42.8674 70.1902 46.5208 73.8786C50.1715 77.5395 50.1715 83.5125 46.5208 87.201C46.5045 87.2285 46.4881 87.2285 46.4717 87.256C46.4526 87.256 46.4335 87.2835 46.4171 87.3111C42.7746 90.9444 38.0161 92.7611 33.2576 92.7611C28.4773 92.7611 23.697 90.9444 20.0517 87.256C13.6234 80.7875 12.8621 70.7406 17.7625 63.4188C18.4228 62.4279 19.184 61.492 20.0517 60.6112C23.697 56.9228 28.4773 55.1061 33.2576 55.1061V29.8927C14.8894 29.8927 0 44.8941 0 63.4188C0 81.9436 14.8894 96.9725 33.2576 96.9725C42.8346 96.9725 51.4621 92.8712 57.5303 86.3477V63.4188H48.7527Z" fill="white" fill-opacity="0.5"/>
</symbol>


</svg>